<?xml version="1.0" standalone="no"?>
<!DOCTYPE svg PUBLIC "-//W3C//DTD SVG 20010904//EN"
 "http://www.w3.org/TR/2001/REC-SVG-20010904/DTD/svg10.dtd">
<svg version="1.0" xmlns="http://www.w3.org/2000/svg"
 width="400.000000pt" height="400.000000pt" viewBox="0 0 400.000000 400.000000"
 preserveAspectRatio="xMidYMid meet">
<metadata>
Created by potrace 1.11, written by Peter Selinger 2001-2013
</metadata>
<g transform="translate(0.000000,400.000000) scale(0.100000,-0.100000)"
fill="#000000" stroke="none">
<path d="M1755 3963 c-69 -6 -207 -34 -289 -60 -109 -34 -282 -118 -316 -153
-3 -3 -30 -24 -61 -47 -163 -124 -331 -361 -409 -576 -29 -80 -39 -97 -60
-102 -14 -4 -41 -14 -60 -22 -248 -110 -372 -207 -432 -340 -18 -39 -22 -66
-22 -143 1 -241 133 -391 416 -473 48 -14 109 -29 134 -33 41 -6 48 -11 61
-43 139 -341 374 -572 696 -686 60 -22 77 -32 74 -44 -3 -9 -23 -68 -45 -131
-74 -212 -121 -370 -128 -429 -15 -140 60 -211 224 -211 l59 0 7 -47 c6 -45 4
-49 -33 -88 -49 -50 -56 -74 -41 -137 17 -69 83 -137 165 -169 48 -19 79 -23
160 -24 110 0 172 20 228 73 24 23 31 25 55 15 15 -6 56 -23 91 -38 157 -66
320 -50 422 42 51 47 69 81 69 136 0 57 -35 111 -109 165 l-58 42 20 69 20 69
58 -5 c48 -5 62 -2 87 15 47 34 63 78 52 144 -10 66 -69 242 -116 350 -19 42
-34 79 -34 81 0 3 24 10 53 16 231 49 499 198 648 361 161 175 204 344 139
538 -17 50 -41 110 -55 133 -14 24 -25 47 -25 50 0 3 33 32 74 63 83 64 136
123 160 180 19 46 21 142 4 200 -15 51 -100 138 -150 155 -34 11 -37 16 -54
84 -75 310 -283 596 -566 779 -249 161 -527 237 -883 242 -104 1 -208 1 -230
-1z m1233 -567 c105 -54 248 -330 308 -596 22 -96 26 -359 6 -407 -14 -33 -38
-45 -73 -36 -14 4 -18 11 -13 22 25 62 45 159 41 195 -8 56 -52 96 -106 96
-22 0 -46 -7 -54 -15 -26 -26 -39 -84 -35 -156 4 -68 3 -70 -19 -64 -147 37
-396 60 -548 51 -95 -6 -274 -35 -317 -51 -11 -4 -17 13 -25 73 -5 43 -16 91
-24 108 -27 57 -120 80 -195 49 -72 -30 -82 -137 -22 -255 16 -34 29 -62 27
-63 -105 -56 -282 -137 -289 -132 -17 10 -115 223 -149 320 -16 50 -37 123
-46 163 -17 84 -20 258 -5 317 48 185 181 316 388 382 71 23 87 25 212 19 163
-6 227 -23 381 -100 159 -80 217 -77 280 13 42 58 54 68 108 84 50 15 121 8
169 -17z m-2375 -748 c7 -266 21 -404 54 -522 5 -17 1 -18 -38 -12 -127 19
-278 91 -334 158 -85 101 -113 233 -72 343 44 119 203 230 378 264 3 0 9 -104
12 -231z m2899 152 c40 -31 71 -115 72 -191 1 -57 -3 -71 -28 -107 -25 -37
-81 -82 -100 -82 -3 0 -6 90 -6 200 0 189 1 200 19 200 10 0 30 -9 43 -20z
m-787 -410 c3 -5 -10 -24 -29 -40 -49 -43 -62 -89 -40 -135 9 -19 30 -45 46
-57 32 -22 101 -34 142 -24 43 11 90 60 121 128 16 34 30 64 31 66 4 8 150
-57 210 -94 267 -165 294 -423 67 -664 -179 -190 -467 -319 -816 -365 -459
-60 -877 75 -999 323 -29 60 -33 75 -32 152 1 111 24 171 109 277 83 103 194
188 339 258 182 88 335 130 591 164 160 22 251 25 260 11z m-1104 -1172 c1
-17 2 -19 6 -6 4 14 12 17 41 12 20 -3 40 -11 44 -18 6 -8 8 -7 8 2 0 7 4 10
10 7 12 -7 31 -11 99 -20 29 -4 78 -14 109 -22 32 -9 71 -16 87 -17 17 0 28
-5 25 -11 -3 -5 -11 -9 -17 -9 -7 1 -13 -2 -13 -7 0 -14 37 -10 43 5 7 17 108
11 119 -7 6 -9 8 -8 8 2 0 9 4 10 13 4 6 -6 64 -11 127 -12 63 -2 116 -4 118
-6 2 -2 4 -9 6 -17 1 -7 9 -27 17 -44 11 -22 13 -37 7 -48 -12 -21 -3 -46 15
-46 9 0 17 -15 21 -37 9 -59 8 -73 -8 -67 -8 3 -17 1 -20 -4 -3 -5 2 -9 12 -8
10 0 16 -6 16 -16 -1 -10 2 -18 7 -18 5 0 9 -20 9 -45 0 -56 -31 -90 -76 -84
-4 0 -10 -4 -13 -9 -3 -6 -18 -13 -33 -17 -23 -6 -27 -4 -31 22 -4 28 -4 28
-6 -3 l-1 -32 -87 -12 c-49 -7 -167 -13 -263 -13 -182 -1 -260 11 -260 38 0
18 16 20 23 3 3 -7 6 1 6 17 1 23 -2 27 -9 15 -9 -13 -11 -13 -20 0 -8 12 -10
9 -10 -12 0 -36 -11 -35 -33 1 -21 36 -21 38 3 44 20 5 28 41 11 51 -4 3 -6
-6 -3 -21 4 -19 1 -24 -9 -21 -17 6 -24 78 -8 78 8 0 8 4 2 13 -15 20 -13 57
3 57 8 0 14 4 14 10 0 5 -7 7 -15 4 -10 -4 -15 0 -15 11 0 11 5 15 15 11 8 -3
15 -2 15 2 0 9 -52 33 -58 27 -3 -2 -7 -27 -10 -55 -2 -27 -8 -50 -13 -50 -5
0 -5 -10 0 -23 6 -14 5 -30 -1 -41 -5 -10 -8 -30 -5 -44 7 -35 -8 -62 -35 -62
-18 0 -19 2 -7 18 13 16 12 16 -6 1 -11 -9 -26 -14 -34 -11 -11 4 -11 6 0 13
11 7 10 9 -3 9 -10 0 -18 -7 -18 -15 0 -21 -47 -19 -59 3 -10 16 -10 16 -11
-1 0 -12 -4 -16 -12 -10 -7 4 -24 7 -38 8 -29 0 -34 19 -22 85 5 27 13 44 21
42 9 -2 9 3 1 19 -15 27 -6 49 20 49 15 0 20 7 20 25 0 16 -6 25 -16 25 -11 0
-14 5 -10 16 3 9 9 27 12 40 3 13 10 22 14 19 5 -3 6 4 3 15 -4 16 0 20 21 20
14 0 26 4 26 9 0 5 -10 7 -21 4 -16 -4 -20 -2 -17 8 3 8 12 13 21 13 12 -1 13
2 5 16 -8 13 -7 23 5 41 14 20 17 20 17 5 0 -11 6 -16 17 -14 21 4 26 36 7 46
-13 7 -13 13 -3 35 6 14 16 24 20 21 5 -3 9 0 9 5 0 6 11 11 25 11 19 0 25 -5
26 -22z m957 -89 c-10 -7 -9 -9 4 -9 22 0 28 -22 10 -36 -20 -15 -8 -44 17
-44 24 0 30 -8 33 -48 1 -17 5 -29 9 -26 11 6 21 -45 13 -68 -4 -13 -2 -18 4
-14 13 8 27 -17 36 -65 6 -35 5 -37 -25 -43 -68 -13 -77 -9 -81 34 -2 23 1 40
7 40 5 0 4 4 -3 9 -7 4 -22 48 -33 96 -21 100 -23 117 -9 95 7 -12 10 -8 10
15 0 22 -3 26 -10 15 -11 -18 -16 -13 -26 24 -4 19 -3 27 3 23 6 -4 13 0 17 8
3 9 12 12 21 8 13 -5 14 -7 3 -14z m42 -64 c0 -8 -7 -15 -15 -15 -8 0 -15 7
-15 15 0 8 7 15 15 15 8 0 15 -7 15 -15z m-120 -86 c0 -5 -4 -9 -10 -9 -5 0
-10 7 -10 16 0 8 5 12 10 9 6 -3 10 -10 10 -16z m-1050 -74 c0 -8 -4 -15 -8
-15 -5 0 -9 7 -9 15 0 8 4 15 9 15 4 0 8 -7 8 -15z m1280 -213 c0 -55 -69 -82
-105 -42 -21 24 -16 31 33 46 55 17 72 16 72 -4z m-1110 -78 c0 -16 -45 -66
-67 -75 -37 -14 -104 5 -130 38 -13 15 -23 31 -23 36 0 4 50 7 110 7 61 0 110
-3 110 -6z m942 -266 c78 -23 118 -102 85 -168 -58 -114 -372 -143 -427 -39
-17 31 -8 43 72 87 40 22 84 52 98 67 25 28 93 64 119 65 7 0 31 -5 53 -12z
m-868 -38 c87 -77 232 -140 322 -140 59 0 58 -22 -3 -60 -65 -41 -115 -53
-199 -47 -109 8 -183 55 -218 139 -31 74 -13 116 61 137 1 1 18 -13 37 -29z"/>
<path d="M1570 1162 c0 -4 9 -8 19 -8 11 0 17 4 15 8 -7 10 -34 10 -34 0z"/>
<path d="M1639 1153 c-13 -16 -12 -17 4 -4 16 13 21 21 13 21 -2 0 -10 -8 -17
-17z"/>
<path d="M1678 1163 c7 -3 16 -2 19 1 4 3 -2 6 -13 5 -11 0 -14 -3 -6 -6z"/>
<path d="M1730 1145 c0 -21 3 -26 9 -16 5 7 14 10 20 7 7 -5 11 1 11 16 0 19
-2 20 -10 8 -9 -13 -11 -13 -20 0 -7 12 -10 8 -10 -15z"/>
<path d="M1803 1164 c21 -7 23 -31 2 -37 -11 -4 -10 -4 2 -3 25 2 23 40 -2 43
-16 1 -16 1 -2 -3z"/>
<path d="M1840 1164 c0 -6 7 -19 15 -30 8 -10 14 -14 14 -9 0 6 -6 19 -14 29
-8 11 -15 15 -15 10z"/>
<path d="M1870 1161 c0 -6 4 -12 8 -15 5 -3 9 1 9 9 0 8 -4 15 -9 15 -4 0 -8
-4 -8 -9z"/>
<path d="M1900 1145 c0 -17 5 -25 18 -25 14 0 15 2 2 10 -13 9 -13 10 0 10 12
0 13 2 1 9 -11 7 -11 9 0 14 10 4 9 6 -3 6 -13 1 -18 -7 -18 -24z"/>
<path d="M1679 1141 c11 -7 11 -9 0 -14 -10 -4 -9 -6 4 -6 9 -1 17 6 17 14 0
8 -8 15 -17 15 -14 0 -15 -2 -4 -9z"/>
<path d="M1985 1141 l20 -8 -20 -5 c-18 -5 -17 -6 3 -7 29 -1 25 23 -4 26 -18
3 -18 2 1 -6z"/>
<path d="M1570 1128 c0 -4 9 -8 20 -8 11 0 20 4 20 8 0 4 -9 8 -20 8 -11 0
-20 -4 -20 -8z"/>
<path d="M2128 1123 c7 -3 16 -2 19 1 4 3 -2 6 -13 5 -11 0 -14 -3 -6 -6z"/>
<path d="M1578 1083 c7 -3 16 -2 19 1 4 3 -2 6 -13 5 -11 0 -14 -3 -6 -6z"/>
<path d="M1660 1079 c0 -6 -7 -9 -15 -5 -11 4 -15 -1 -15 -17 0 -18 2 -19 10
-7 9 13 11 13 20 0 8 -12 10 -9 10 13 0 15 -2 27 -5 27 -3 0 -5 -5 -5 -11z"/>
<path d="M1684 1075 c-9 -22 4 -35 31 -33 27 3 32 17 13 36 -16 16 -37 15 -44
-3z m36 -10 c0 -8 -7 -15 -15 -15 -8 0 -15 7 -15 15 0 8 7 15 15 15 8 0 15 -7
15 -15z"/>
<path d="M1740 1084 c0 -6 7 -19 15 -30 8 -10 14 -14 14 -9 0 6 -6 19 -14 29
-8 11 -15 15 -15 10z"/>
<path d="M1770 1081 c0 -6 4 -12 8 -15 5 -3 9 1 9 9 0 8 -4 15 -9 15 -4 0 -8
-4 -8 -9z"/>
<path d="M1800 1065 c0 -17 5 -25 18 -25 14 0 15 2 2 10 -13 9 -13 10 0 10 12
0 13 2 1 9 -11 7 -11 9 0 14 10 4 9 6 -3 6 -13 1 -18 -7 -18 -24z"/>
<path d="M1870 1065 c0 -27 21 -33 39 -12 8 10 7 17 -1 25 -20 20 -38 14 -38
-13z m32 0 c0 -5 -5 -10 -11 -11 -8 -2 -7 -1 0 3 8 4 7 8 -2 15 -11 8 -11 9
-1 6 8 -2 14 -8 14 -13z"/>
<path d="M1940 1083 c15 -7 12 -31 -5 -36 -11 -4 -10 -4 2 -3 21 2 25 38 5 42
-7 1 -8 0 -2 -3z"/>
<path d="M1971 1085 c0 -5 3 -18 7 -27 6 -15 9 -13 19 8 10 21 10 24 -2 14
-10 -8 -14 -8 -18 2 -3 7 -5 9 -6 3z"/>
<path d="M2028 1083 c7 -3 16 -2 19 1 4 3 -2 6 -13 5 -11 0 -14 -3 -6 -6z"/>
<path d="M2080 1065 c0 -23 3 -27 10 -15 9 13 11 13 20 0 7 -12 10 -8 10 15 0
23 -3 27 -10 15 -9 -13 -11 -13 -20 0 -7 12 -10 8 -10 -15z"/>
<path d="M2133 1074 c-3 -8 -1 -20 5 -26 8 -8 9 -5 6 10 -4 14 0 22 13 25 17
4 17 5 0 6 -10 0 -20 -6 -24 -15z"/>
<path d="M2185 1077 c-6 -7 -15 -19 -20 -27 -8 -13 -6 -13 8 -2 9 8 20 11 26
8 5 -3 7 3 4 14 -6 23 -5 23 -18 7z"/>
<path d="M2250 1065 c0 -17 5 -25 18 -25 14 0 15 2 2 10 -13 9 -13 10 0 10 12
0 13 2 1 9 -11 7 -11 9 0 14 10 4 9 6 -3 6 -13 1 -18 -7 -18 -24z"/>
<path d="M2321 1063 c0 -16 3 -22 6 -15 2 6 9 12 14 12 6 0 7 -4 4 -10 -3 -5
-2 -10 2 -10 5 0 14 9 21 20 14 23 32 26 32 6 0 -8 -8 -17 -17 -19 -14 -4 -12
-5 5 -6 16 -1 22 5 22 19 0 24 -29 39 -40 20 -5 -8 -9 -9 -14 -1 -14 22 -36
12 -35 -16z m34 7 c3 -6 -1 -7 -9 -4 -18 7 -21 14 -7 14 6 0 13 -4 16 -10z"/>
<path d="M2427 1059 c6 -23 9 -24 16 -5 3 8 0 17 -7 19 -10 4 -12 -1 -9 -14z"/>
<path d="M1582 1056 c7 -8 15 -12 17 -11 5 6 -10 25 -20 25 -5 0 -4 -6 3 -14z"/>
<path d="M2029 1061 c11 -7 11 -9 0 -14 -10 -4 -9 -6 4 -6 9 -1 17 6 17 14 0
8 -8 15 -17 15 -14 0 -15 -2 -4 -9z"/>
<path d="M1551 994 c0 -11 3 -14 6 -6 3 7 2 16 -1 19 -3 4 -6 -2 -5 -13z"/>
<path d="M1606 992 c4 -14 0 -22 -13 -25 -17 -4 -17 -5 0 -6 21 -1 34 26 19
41 -8 8 -9 5 -6 -10z"/>
<path d="M1634 997 c3 -10 6 -24 7 -30 0 -7 5 -1 10 12 5 13 7 26 4 29 -3 3
-5 -1 -5 -9 0 -12 -2 -11 -11 1 -9 12 -10 12 -5 -3z"/>
<path d="M1767 997 c-3 -8 -1 -20 4 -28 6 -10 9 -7 9 14 0 29 -5 35 -13 14z"/>
<path d="M1794 985 c1 -12 9 -21 21 -22 14 -1 15 0 3 3 -9 3 -19 13 -21 22 -3
12 -4 11 -3 -3z"/>
<path d="M1827 994 c3 -7 11 -10 19 -7 20 8 17 22 -5 20 -10 0 -17 -7 -14 -13z"/>
<path d="M1872 990 c-7 -11 -8 -20 -3 -20 9 0 24 30 18 36 -1 2 -8 -6 -15 -16z"/>
<path d="M1972 990 c2 -16 10 -25 23 -27 16 -1 16 -1 2 3 -9 3 -15 9 -13 13 3
4 0 13 -5 21 -8 12 -9 9 -7 -10z"/>
<path d="M2001 994 c0 -11 3 -14 6 -6 3 7 2 16 -1 19 -3 4 -6 -2 -5 -13z"/>
<path d="M2025 999 c-4 -6 -5 -12 -2 -15 2 -3 7 2 10 11 7 17 1 20 -8 4z"/>
<path d="M2450 991 c0 -11 -6 -22 -12 -24 -8 -3 -6 -6 5 -6 12 -1 17 7 17 24
0 14 -2 25 -5 25 -3 0 -5 -9 -5 -19z"/>
<path d="M1694 981 c4 -5 1 -12 -4 -14 -6 -3 -5 -4 2 -3 15 3 23 26 8 26 -6 0
-9 -4 -6 -9z"/>
<path d="M1473 914 c-7 -20 11 -38 31 -31 17 7 21 32 7 41 -5 4 -7 -3 -4 -14
4 -14 0 -20 -12 -20 -12 0 -16 6 -12 20 6 24 -1 27 -10 4z"/>
<path d="M1741 903 c0 -25 1 -26 9 -8 12 27 12 35 0 35 -5 0 -10 -12 -9 -27z"/>
<path d="M1771 909 c-7 -12 -10 -23 -8 -26 3 -3 11 5 17 17 15 28 8 35 -9 9z"/>
<path d="M1886 922 c7 -4 14 -16 17 -27 4 -15 5 -14 6 8 1 20 -4 27 -16 27
-12 0 -14 -3 -7 -8z"/>
<path d="M1924 915 c-8 -19 4 -35 24 -34 14 1 14 2 -1 6 -13 3 -17 11 -14 24
6 22 -1 26 -9 4z"/>
<path d="M1956 917 c3 -10 9 -15 12 -12 3 3 0 11 -7 18 -10 9 -11 8 -5 -6z"/>
<path d="M2407 909 c4 -13 8 -18 11 -10 2 7 -1 18 -6 23 -8 8 -9 4 -5 -13z"/>
<path d="M2473 908 c0 -21 4 -28 18 -28 11 0 19 7 19 15 0 8 -6 15 -14 15 -8
0 -16 6 -19 13 -2 6 -4 0 -4 -15z"/>
<path d="M1538 898 c2 -10 6 -18 7 -18 1 0 5 8 7 18 3 11 0 19 -7 19 -7 0 -10
-8 -7 -19z"/>
<path d="M1583 907 c14 -11 15 -16 5 -20 -9 -4 -9 -6 -1 -6 23 -2 23 18 1 29
-21 10 -22 10 -5 -3z"/>
<path d="M2371 904 c0 -11 3 -14 6 -6 3 7 2 16 -1 19 -3 4 -6 -2 -5 -13z"/>
<path d="M2438 898 c2 -10 6 -18 7 -18 1 0 5 8 7 18 3 11 0 19 -7 19 -7 0 -10
-8 -7 -19z"/>
<path d="M1467 853 c-4 -3 -7 -16 -6 -27 0 -12 3 -15 6 -9 2 7 4 15 3 19 -1 4
4 11 12 15 7 5 8 9 2 9 -6 0 -14 -3 -17 -7z"/>
<path d="M1537 853 c-4 -3 -7 -16 -7 -27 0 -17 2 -18 10 -6 9 13 11 13 20 0 8
-12 10 -11 10 7 0 17 -4 21 -17 16 -11 -4 -14 -3 -9 5 8 13 3 16 -7 5z"/>
<path d="M1584 845 c-3 -8 -4 -20 -1 -27 3 -7 6 -2 6 10 1 14 6 22 14 19 6 -2
11 -12 10 -22 -1 -12 2 -14 10 -6 7 7 6 15 -3 26 -16 19 -29 19 -36 0z"/>
<path d="M1741 835 c0 -16 3 -25 7 -19 4 6 14 14 22 17 12 4 12 6 -2 6 -9 1
-19 7 -21 14 -3 6 -6 -1 -6 -18z"/>
<path d="M1806 852 c-2 -4 4 -8 14 -8 10 0 16 4 14 8 -3 4 -9 8 -14 8 -5 0
-11 -4 -14 -8z"/>
<path d="M1850 845 c0 -8 4 -15 10 -15 5 0 7 7 4 15 -4 8 -8 15 -10 15 -2 0
-4 -7 -4 -15z"/>
<path d="M1917 853 c-4 -3 -7 -15 -7 -25 0 -16 2 -17 14 -6 9 8 10 15 4 19 -6
4 -5 9 3 12 8 3 9 6 3 6 -6 1 -14 -2 -17 -6z"/>
<path d="M2431 833 c1 -23 2 -24 6 -5 2 12 9 22 14 22 6 0 8 -4 5 -8 -2 -4 0
-14 5 -22 7 -11 8 -8 6 10 -6 37 -37 40 -36 3z"/>
<path d="M1430 840 c0 -5 5 -10 10 -10 6 0 10 5 10 10 0 6 -4 10 -10 10 -5 0
-10 -4 -10 -10z"/>
<path d="M1886 842 c-2 -4 -1 -14 5 -22 7 -12 9 -10 9 8 0 23 -5 28 -14 14z"/>
<path d="M1486 771 c-3 -5 2 -8 12 -7 9 0 17 -6 17 -14 0 -9 -8 -14 -19 -13
-14 1 -15 -2 -6 -10 9 -9 16 -7 28 9 10 11 23 19 29 17 6 -2 14 0 17 5 3 5 -6
8 -19 6 -14 -1 -27 2 -31 7 -7 11 -21 12 -28 0z"/>
<path d="M1585 769 c-4 -6 -5 -12 -2 -15 2 -3 7 2 10 11 7 17 1 20 -8 4z"/>
<path d="M1905 755 c3 -31 -12 -33 -18 -2 -4 18 -5 17 -6 -6 -1 -22 3 -28 17
-25 17 3 26 44 12 53 -5 3 -7 -6 -5 -20z"/>
<path d="M1937 773 c-11 -10 -8 -41 4 -49 6 -3 16 -1 22 5 9 9 7 10 -7 5 -16
-6 -18 -4 -14 19 6 29 5 31 -5 20z"/>
<path d="M2385 769 c-4 -6 -5 -12 -2 -15 2 -3 7 2 10 11 7 17 1 20 -8 4z"/>
<path d="M1431 748 c-1 -18 4 -28 13 -28 20 0 29 17 15 26 -8 4 -9 3 -5 -4 4
-7 3 -12 -3 -12 -5 0 -12 10 -14 23 -4 19 -4 18 -6 -5z"/>
<path d="M1753 752 c0 -11 5 -18 9 -16 4 3 8 0 8 -7 0 -7 3 -10 6 -6 3 3 -1
16 -9 28 -16 22 -16 22 -14 1z"/>
<path d="M1787 763 c-3 -5 -1 -17 4 -28 7 -17 8 -17 8 8 1 27 -4 34 -12 20z"/>
<path d="M1810 746 c0 -18 5 -26 18 -26 13 0 14 2 3 9 -7 5 -11 13 -7 19 3 6
2 13 -4 17 -6 4 -10 -5 -10 -19z"/>
<path d="M1990 750 c13 -23 20 -26 20 -6 0 8 -7 16 -15 20 -13 4 -14 2 -5 -14z"/>
<path d="M2437 759 c7 -7 15 -10 18 -7 3 3 -2 9 -12 12 -14 6 -15 5 -6 -5z"/>
<path d="M2480 760 c0 -6 8 -14 17 -17 15 -6 15 -7 -3 -14 -16 -6 -16 -8 -2
-8 26 -1 29 14 7 32 -10 9 -19 12 -19 7z"/>
<path d="M2330 738 c0 -20 25 -24 36 -6 5 7 3 8 -6 3 -7 -4 -16 -2 -21 6 -7
11 -9 10 -9 -3z"/>
<path d="M2390 726 c7 -7 13 -7 20 0 6 6 3 10 -10 10 -13 0 -16 -4 -10 -10z"/>
<path d="M1835 675 c0 -13 3 -21 8 -18 4 2 7 10 7 18 0 8 -3 16 -7 18 -5 3 -8
-5 -8 -18z"/>
<path d="M1890 690 c0 -5 5 -10 11 -10 5 0 7 5 4 10 -3 6 -8 10 -11 10 -2 0
-4 -4 -4 -10z"/>
<path d="M1920 675 c0 -14 4 -25 9 -25 5 0 8 8 7 18 -2 9 2 20 8 24 7 5 4 8
-6 8 -13 0 -18 -8 -18 -25z"/>
<path d="M2014 675 c0 -13 3 -22 7 -19 8 4 6 30 -2 38 -3 3 -5 -5 -5 -19z"/>
<path d="M2046 692 c-2 -4 4 -8 14 -8 10 0 16 4 14 8 -3 4 -9 8 -14 8 -5 0
-11 -4 -14 -8z"/>
<path d="M2253 684 c-3 -8 -1 -20 5 -26 8 -8 9 -5 5 11 -4 15 -1 21 12 21 13
0 16 -6 12 -21 -4 -16 -3 -19 5 -11 14 14 3 42 -17 42 -9 0 -18 -7 -22 -16z"/>
<path d="M2338 681 c-9 -11 -14 -22 -11 -25 8 -7 35 22 31 34 -2 6 -11 2 -20
-9z"/>
<path d="M2448 693 c7 -3 16 -2 19 1 4 3 -2 6 -13 5 -11 0 -14 -3 -6 -6z"/>
<path d="M2097 679 c7 -7 15 -10 18 -7 3 3 -2 9 -12 12 -14 6 -15 5 -6 -5z"/>
<path d="M2200 665 c0 -17 2 -17 10 -5 9 13 11 13 20 0 8 -12 10 -12 10 5 0
14 -6 21 -20 21 -14 0 -20 -7 -20 -21z"/>
<path d="M1800 671 c0 -6 4 -13 10 -16 6 -3 7 1 4 9 -7 18 -14 21 -14 7z"/>
<path d="M2152 666 c7 -8 15 -12 17 -11 5 6 -10 25 -20 25 -5 0 -4 -6 3 -14z"/>
<path d="M1870 659 c0 -5 5 -7 10 -4 6 3 10 8 10 11 0 2 -4 4 -10 4 -5 0 -10
-5 -10 -11z"/>
<path d="M2594 981 c4 -5 0 -12 -6 -14 -8 -3 -6 -6 5 -6 9 -1 17 6 17 14 0 8
-5 15 -11 15 -5 0 -8 -4 -5 -9z"/>
<path d="M2594 915 c-3 -8 -3 -19 1 -25 8 -13 35 -13 35 0 0 5 -7 7 -17 3 -13
-5 -15 -2 -11 15 7 25 0 30 -8 7z"/>
<path d="M2632 904 c10 -22 13 -23 21 -9 10 18 4 28 -18 31 -11 2 -12 -3 -3
-22z"/>
<path d="M2640 827 c0 -13 3 -17 8 -11 4 6 14 13 22 16 10 3 8 6 -8 10 -18 5
-22 2 -22 -15z"/>
</g>
</svg>
